<svg xmlns="http://www.w3.org/2000/svg" xmlns:xlink="http://www.w3.org/1999/xlink" width="500" zoomAndPan="magnify" viewBox="0 0 375 374.999991" height="500" preserveAspectRatio="xMidYMid meet" version="1.0"><defs><g/><clipPath id="b72e755b53"><path d="M 0.519531 0.121094 L 190 0.121094 L 190 141.238281 L 0.519531 141.238281 Z M 0.519531 0.121094 " clip-rule="nonzero"/></clipPath><clipPath id="d5b2aa9857"><rect x="0" width="190" y="0" height="142"/></clipPath><clipPath id="521e1c7756"><path d="M 51 29 L 64 29 L 64 42 L 51 42 Z M 51 29 " clip-rule="nonzero"/></clipPath><clipPath id="9b8a8bd79b"><path d="M 60.492188 29.445312 L 63.511719 32.464844 L 54.457031 41.515625 L 51.441406 38.5 Z M 60.492188 29.445312 " clip-rule="nonzero"/></clipPath><clipPath id="c79e671d44"><path d="M 0.398438 0.398438 L 12.640625 0.398438 L 12.640625 12.640625 L 0.398438 12.640625 Z M 0.398438 0.398438 " clip-rule="nonzero"/></clipPath><clipPath id="ba9d6d2cc3"><path d="M 9.492188 0.445312 L 12.511719 3.464844 L 3.457031 12.515625 L 0.441406 9.5 Z M 9.492188 0.445312 " clip-rule="nonzero"/></clipPath><clipPath id="1b31770e78"><rect x="0" width="13" y="0" height="13"/></clipPath><clipPath id="37098c9d0b"><path d="M 51 29 L 64 29 L 64 42 L 51 42 Z M 51 29 " clip-rule="nonzero"/></clipPath><clipPath id="917c1e5562"><path d="M 51.441406 32.457031 L 54.460938 29.4375 L 63.566406 38.546875 L 60.550781 41.5625 Z M 51.441406 32.457031 " clip-rule="nonzero"/></clipPath><clipPath id="b7f8666ee8"><path d="M 0.398438 0.398438 L 12.640625 0.398438 L 12.640625 12.640625 L 0.398438 12.640625 Z M 0.398438 0.398438 " clip-rule="nonzero"/></clipPath><clipPath id="47ebf0ed06"><path d="M 0.441406 3.457031 L 3.460938 0.4375 L 12.566406 9.546875 L 9.550781 12.5625 Z M 0.441406 3.457031 " clip-rule="nonzero"/></clipPath><clipPath id="7445ed0e6c"><rect x="0" width="13" y="0" height="13"/></clipPath><clipPath id="5c2849f66b"><path d="M 89 56 L 102 56 L 102 69 L 89 69 Z M 89 56 " clip-rule="nonzero"/></clipPath><clipPath id="c8805eef33"><path d="M 98.351562 56.929688 L 101.371094 59.945312 L 92.316406 69 L 89.300781 65.980469 Z M 98.351562 56.929688 " clip-rule="nonzero"/></clipPath><clipPath id="c957648a6b"><path d="M 0.078125 0.761719 L 12.558594 0.761719 L 12.558594 13 L 0.078125 13 Z M 0.078125 0.761719 " clip-rule="nonzero"/></clipPath><clipPath id="0f8994b37c"><path d="M 9.351562 0.929688 L 12.371094 3.945312 L 3.316406 13 L 0.300781 9.980469 Z M 9.351562 0.929688 " clip-rule="nonzero"/></clipPath><clipPath id="df40eecad3"><rect x="0" width="13" y="0" height="13"/></clipPath><clipPath id="7ccac9b25f"><path d="M 89 56 L 102 56 L 102 70 L 89 70 Z M 89 56 " clip-rule="nonzero"/></clipPath><clipPath id="d3f07850d4"><path d="M 89.300781 59.9375 L 92.320312 56.921875 L 101.425781 66.027344 L 98.40625 69.046875 Z M 89.300781 59.9375 " clip-rule="nonzero"/></clipPath><clipPath id="5c27ce2c4a"><path d="M 0.078125 0.761719 L 12.558594 0.761719 L 12.558594 13.238281 L 0.078125 13.238281 Z M 0.078125 0.761719 " clip-rule="nonzero"/></clipPath><clipPath id="0b061e01cf"><path d="M 0.300781 3.9375 L 3.320312 0.921875 L 12.425781 10.027344 L 9.40625 13.046875 Z M 0.300781 3.9375 " clip-rule="nonzero"/></clipPath><clipPath id="ea1bd930a5"><rect x="0" width="13" y="0" height="14"/></clipPath><clipPath id="79ee2cf9cf"><path d="M 127 4 L 140 4 L 140 17 L 127 17 Z M 127 4 " clip-rule="nonzero"/></clipPath><clipPath id="7a4a6a0ff7"><path d="M 136.203125 4.53125 L 139.222656 7.550781 L 130.167969 16.601562 L 127.152344 13.585938 Z M 136.203125 4.53125 " clip-rule="nonzero"/></clipPath><clipPath id="db79d0153d"><path d="M 0 0.441406 L 12.238281 0.441406 L 12.238281 12.679688 L 0 12.679688 Z M 0 0.441406 " clip-rule="nonzero"/></clipPath><clipPath id="126cb26536"><path d="M 9.203125 0.53125 L 12.222656 3.550781 L 3.167969 12.601562 L 0.152344 9.585938 Z M 9.203125 0.53125 " clip-rule="nonzero"/></clipPath><clipPath id="c367aceb1b"><rect x="0" width="13" y="0" height="13"/></clipPath><clipPath id="d55d141f05"><path d="M 127 4 L 140 4 L 140 17 L 127 17 Z M 127 4 " clip-rule="nonzero"/></clipPath><clipPath id="406cd4031e"><path d="M 127.152344 7.542969 L 130.171875 4.523438 L 139.277344 13.628906 L 136.257812 16.648438 Z M 127.152344 7.542969 " clip-rule="nonzero"/></clipPath><clipPath id="0b34aa0781"><path d="M 0 0.441406 L 12.480469 0.441406 L 12.480469 12.679688 L 0 12.679688 Z M 0 0.441406 " clip-rule="nonzero"/></clipPath><clipPath id="87ce7b248b"><path d="M 0.152344 3.542969 L 3.171875 0.523438 L 12.277344 9.628906 L 9.257812 12.648438 Z M 0.152344 3.542969 " clip-rule="nonzero"/></clipPath><clipPath id="f6839f1b10"><rect x="0" width="13" y="0" height="13"/></clipPath><clipPath id="c673638e2e"><rect x="0" width="190" y="0" height="142"/></clipPath><clipPath id="c99cddc629"><rect x="0" width="186" y="0" height="87"/></clipPath></defs><g transform="matrix(1, 0, 0, 1, 185, 117)"><g clip-path="url(#c673638e2e)"><g clip-path="url(#b72e755b53)"><g transform="matrix(1, 0, 0, 1, 0.000000000000028422, 0)"><g clip-path="url(#d5b2aa9857)"><path fill="#000000" d="M 19.648438 88.089844 L 57.503906 35.316406 " fill-opacity="1" fill-rule="nonzero"/><path fill="#000000" d="M 18.777344 87.464844 L 56.632812 34.691406 C 56.714844 34.578125 56.820312 34.480469 56.9375 34.40625 C 57.058594 34.332031 57.191406 34.28125 57.332031 34.257812 C 57.472656 34.234375 57.609375 34.242188 57.75 34.273438 C 57.886719 34.304688 58.015625 34.363281 58.128906 34.445312 C 58.246094 34.527344 58.339844 34.628906 58.417969 34.75 C 58.492188 34.871094 58.539062 35.003906 58.5625 35.144531 C 58.585938 35.285156 58.582031 35.421875 58.550781 35.5625 C 58.515625 35.699219 58.460938 35.828125 58.375 35.941406 L 20.519531 88.714844 C 20.4375 88.832031 20.335938 88.925781 20.214844 89.003906 C 20.09375 89.078125 19.964844 89.125 19.824219 89.148438 C 19.683594 89.171875 19.542969 89.167969 19.40625 89.136719 C 19.265625 89.101562 19.140625 89.046875 19.023438 88.960938 C 18.910156 88.878906 18.8125 88.777344 18.738281 88.65625 C 18.664062 88.535156 18.613281 88.40625 18.589844 88.265625 C 18.566406 88.125 18.574219 87.984375 18.605469 87.847656 C 18.636719 87.707031 18.695312 87.582031 18.777344 87.464844 Z M 18.777344 87.464844 " fill-opacity="1" fill-rule="nonzero"/><path fill="#000000" d="M 57.503906 35.316406 L 95.359375 63.464844 " fill-opacity="1" fill-rule="nonzero"/><path fill="#000000" d="M 58.144531 34.457031 L 96 62.601562 C 96.113281 62.6875 96.207031 62.792969 96.28125 62.914062 C 96.355469 63.035156 96.402344 63.167969 96.421875 63.308594 C 96.441406 63.449219 96.4375 63.585938 96.402344 63.726562 C 96.367188 63.863281 96.304688 63.988281 96.222656 64.101562 C 96.136719 64.21875 96.035156 64.3125 95.910156 64.382812 C 95.789062 64.457031 95.65625 64.503906 95.515625 64.523438 C 95.375 64.546875 95.238281 64.539062 95.097656 64.503906 C 94.960938 64.46875 94.835938 64.410156 94.722656 64.324219 L 56.867188 36.179688 C 56.75 36.09375 56.65625 35.988281 56.585938 35.867188 C 56.511719 35.746094 56.464844 35.613281 56.445312 35.472656 C 56.421875 35.332031 56.429688 35.195312 56.464844 35.054688 C 56.5 34.917969 56.558594 34.792969 56.644531 34.675781 C 56.730469 34.5625 56.832031 34.46875 56.953125 34.398438 C 57.078125 34.324219 57.207031 34.277344 57.347656 34.257812 C 57.488281 34.234375 57.628906 34.242188 57.765625 34.277344 C 57.90625 34.3125 58.03125 34.371094 58.144531 34.457031 Z M 96.433594 63.464844 C 96.433594 63.605469 96.40625 63.742188 96.351562 63.875 C 96.296875 64.003906 96.21875 64.121094 96.121094 64.222656 C 96.019531 64.324219 95.902344 64.398438 95.769531 64.453125 C 95.640625 64.507812 95.503906 64.535156 95.359375 64.535156 C 95.21875 64.535156 95.082031 64.507812 94.949219 64.453125 C 94.820312 64.398438 94.703125 64.324219 94.601562 64.222656 C 94.5 64.121094 94.425781 64.003906 94.371094 63.875 C 94.316406 63.742188 94.289062 63.605469 94.289062 63.464844 C 94.289062 63.320312 94.316406 63.183594 94.371094 63.054688 C 94.425781 62.921875 94.5 62.804688 94.601562 62.703125 C 94.703125 62.605469 94.820312 62.527344 94.949219 62.472656 C 95.082031 62.417969 95.21875 62.390625 95.359375 62.390625 C 95.503906 62.390625 95.640625 62.417969 95.769531 62.472656 C 95.902344 62.527344 96.019531 62.605469 96.121094 62.703125 C 96.21875 62.804688 96.296875 62.921875 96.351562 63.054688 C 96.40625 63.183594 96.433594 63.320312 96.433594 63.464844 Z M 96.433594 63.464844 " fill-opacity="1" fill-rule="nonzero"/><path fill="#000000" d="M 95.359375 63.464844 L 133.214844 10.691406 " fill-opacity="1" fill-rule="nonzero"/><path fill="#000000" d="M 94.488281 62.839844 L 132.34375 10.066406 C 132.429688 9.949219 132.53125 9.855469 132.652344 9.777344 C 132.769531 9.703125 132.902344 9.65625 133.042969 9.632812 C 133.183594 9.609375 133.320312 9.613281 133.460938 9.644531 C 133.597656 9.675781 133.726562 9.734375 133.839844 9.816406 C 133.957031 9.902344 134.050781 10.003906 134.128906 10.125 C 134.203125 10.246094 134.25 10.375 134.273438 10.515625 C 134.296875 10.65625 134.292969 10.796875 134.261719 10.933594 C 134.230469 11.070312 134.171875 11.199219 134.089844 11.316406 L 96.234375 64.089844 C 96.148438 64.203125 96.046875 64.300781 95.925781 64.375 C 95.804688 64.449219 95.675781 64.5 95.535156 64.523438 C 95.394531 64.542969 95.253906 64.539062 95.117188 64.507812 C 94.976562 64.476562 94.851562 64.417969 94.734375 64.335938 C 94.621094 64.253906 94.523438 64.148438 94.449219 64.03125 C 94.375 63.910156 94.324219 63.777344 94.300781 63.636719 C 94.28125 63.496094 94.285156 63.359375 94.316406 63.21875 C 94.347656 63.082031 94.40625 62.953125 94.488281 62.839844 Z M 94.488281 62.839844 " fill-opacity="1" fill-rule="nonzero"/><path fill="#000000" d="M 133.214844 10.691406 L 171.070312 17.726562 " fill-opacity="1" fill-rule="nonzero"/><path fill="#000000" d="M 133.414062 9.636719 L 171.269531 16.671875 C 171.40625 16.699219 171.539062 16.75 171.65625 16.828125 C 171.777344 16.90625 171.875 17 171.957031 17.117188 C 172.035156 17.238281 172.09375 17.363281 172.121094 17.503906 C 172.152344 17.644531 172.152344 17.78125 172.125 17.921875 C 172.101562 18.0625 172.050781 18.191406 171.972656 18.3125 C 171.894531 18.429688 171.796875 18.53125 171.679688 18.609375 C 171.5625 18.691406 171.433594 18.746094 171.292969 18.777344 C 171.15625 18.804688 171.015625 18.808594 170.875 18.78125 L 133.019531 11.746094 C 132.878906 11.71875 132.75 11.667969 132.632812 11.589844 C 132.511719 11.511719 132.414062 11.414062 132.332031 11.296875 C 132.25 11.179688 132.195312 11.050781 132.167969 10.910156 C 132.136719 10.773438 132.136719 10.632812 132.160156 10.492188 C 132.1875 10.355469 132.238281 10.222656 132.316406 10.105469 C 132.394531 9.984375 132.492188 9.886719 132.609375 9.804688 C 132.726562 9.726562 132.855469 9.667969 132.992188 9.640625 C 133.132812 9.609375 133.273438 9.609375 133.414062 9.636719 Z M 171.207031 16.660156 C 171.347656 16.679688 171.480469 16.722656 171.601562 16.792969 C 171.726562 16.863281 171.832031 16.957031 171.917969 17.066406 C 172.007812 17.179688 172.070312 17.304688 172.105469 17.441406 C 172.144531 17.578125 172.152344 17.71875 172.136719 17.859375 C 172.117188 18 172.074219 18.132812 172.003906 18.257812 C 171.933594 18.378906 171.84375 18.484375 171.730469 18.574219 C 171.617188 18.660156 171.492188 18.722656 171.355469 18.761719 C 171.21875 18.796875 171.082031 18.808594 170.9375 18.789062 C 170.796875 18.773438 170.664062 18.730469 170.542969 18.660156 C 170.417969 18.589844 170.3125 18.496094 170.226562 18.382812 C 170.136719 18.273438 170.074219 18.148438 170.039062 18.011719 C 170 17.875 169.988281 17.734375 170.007812 17.59375 C 170.027344 17.453125 170.070312 17.320312 170.140625 17.195312 C 170.210938 17.074219 170.300781 16.96875 170.414062 16.878906 C 170.527344 16.792969 170.652344 16.730469 170.789062 16.691406 C 170.925781 16.652344 171.0625 16.644531 171.207031 16.660156 Z M 171.207031 16.660156 " fill-opacity="1" fill-rule="nonzero"/><path fill="#000000" d="M 22.75 88.089844 C 22.75 87.679688 22.667969 87.285156 22.511719 86.90625 C 22.355469 86.527344 22.132812 86.191406 21.839844 85.898438 C 21.550781 85.609375 21.214844 85.386719 20.835938 85.226562 C 20.457031 85.070312 20.0625 84.992188 19.648438 84.992188 C 19.238281 84.992188 18.84375 85.070312 18.464844 85.226562 C 18.085938 85.386719 17.75 85.609375 17.457031 85.898438 C 17.167969 86.191406 16.945312 86.527344 16.785156 86.90625 C 16.628906 87.285156 16.550781 87.679688 16.550781 88.089844 C 16.550781 88.503906 16.628906 88.898438 16.785156 89.277344 C 16.945312 89.65625 17.167969 89.992188 17.457031 90.28125 C 17.75 90.574219 18.085938 90.796875 18.464844 90.953125 C 18.84375 91.109375 19.238281 91.191406 19.648438 91.191406 C 20.0625 91.191406 20.457031 91.109375 20.835938 90.953125 C 21.214844 90.796875 21.550781 90.574219 21.839844 90.28125 C 22.132812 89.992188 22.355469 89.65625 22.511719 89.277344 C 22.667969 88.898438 22.75 88.503906 22.75 88.089844 Z M 22.75 88.089844 " fill-opacity="1" fill-rule="nonzero"/><path fill="#000000" d="M 60.605469 35.316406 C 60.605469 34.90625 60.523438 34.511719 60.367188 34.132812 C 60.210938 33.753906 59.988281 33.417969 59.695312 33.125 C 59.40625 32.835938 59.070312 32.613281 58.691406 32.453125 C 58.3125 32.296875 57.917969 32.21875 57.503906 32.21875 C 57.09375 32.21875 56.699219 32.296875 56.320312 32.453125 C 55.941406 32.613281 55.605469 32.835938 55.3125 33.125 C 55.023438 33.417969 54.800781 33.753906 54.644531 34.132812 C 54.484375 34.511719 54.40625 34.90625 54.40625 35.316406 C 54.40625 35.726562 54.484375 36.125 54.644531 36.503906 C 54.800781 36.882812 55.023438 37.21875 55.3125 37.507812 C 55.605469 37.800781 55.941406 38.023438 56.320312 38.179688 C 56.699219 38.335938 57.09375 38.417969 57.503906 38.417969 C 57.917969 38.417969 58.3125 38.335938 58.691406 38.179688 C 59.070312 38.023438 59.40625 37.800781 59.695312 37.507812 C 59.988281 37.21875 60.210938 36.882812 60.367188 36.503906 C 60.523438 36.125 60.605469 35.726562 60.605469 35.316406 Z M 60.605469 35.316406 " fill-opacity="1" fill-rule="nonzero"/><path fill="#000000" d="M 98.460938 63.464844 C 98.460938 63.050781 98.382812 62.65625 98.222656 62.277344 C 98.066406 61.898438 97.84375 61.5625 97.550781 61.273438 C 97.261719 60.980469 96.925781 60.757812 96.546875 60.601562 C 96.167969 60.445312 95.773438 60.363281 95.359375 60.363281 C 94.949219 60.363281 94.554688 60.445312 94.175781 60.601562 C 93.796875 60.757812 93.460938 60.980469 93.171875 61.273438 C 92.878906 61.5625 92.65625 61.898438 92.5 62.277344 C 92.339844 62.65625 92.261719 63.050781 92.261719 63.464844 C 92.261719 63.875 92.339844 64.269531 92.5 64.648438 C 92.65625 65.027344 92.878906 65.363281 93.171875 65.65625 C 93.460938 65.945312 93.796875 66.167969 94.175781 66.328125 C 94.554688 66.484375 94.949219 66.5625 95.359375 66.5625 C 95.773438 66.5625 96.167969 66.484375 96.546875 66.328125 C 96.925781 66.167969 97.261719 65.945312 97.550781 65.65625 C 97.84375 65.363281 98.066406 65.027344 98.222656 64.648438 C 98.382812 64.269531 98.460938 63.875 98.460938 63.464844 Z M 98.460938 63.464844 " fill-opacity="1" fill-rule="nonzero"/><path fill="#000000" d="M 136.316406 10.691406 C 136.316406 10.277344 136.238281 9.882812 136.078125 9.503906 C 135.921875 9.125 135.699219 8.789062 135.40625 8.5 C 135.117188 8.207031 134.78125 7.984375 134.402344 7.828125 C 134.023438 7.667969 133.628906 7.589844 133.214844 7.589844 C 132.804688 7.589844 132.410156 7.667969 132.03125 7.828125 C 131.652344 7.984375 131.316406 8.207031 131.027344 8.5 C 130.734375 8.789062 130.511719 9.125 130.355469 9.503906 C 130.195312 9.882812 130.117188 10.277344 130.117188 10.691406 C 130.117188 11.101562 130.195312 11.496094 130.355469 11.875 C 130.511719 12.253906 130.734375 12.589844 131.027344 12.878906 C 131.316406 13.171875 131.652344 13.394531 132.03125 13.550781 C 132.410156 13.710938 132.804688 13.789062 133.214844 13.789062 C 133.628906 13.789062 134.023438 13.710938 134.402344 13.550781 C 134.78125 13.394531 135.117188 13.171875 135.40625 12.878906 C 135.699219 12.589844 135.921875 12.253906 136.078125 11.875 C 136.238281 11.496094 136.316406 11.101562 136.316406 10.691406 Z M 136.316406 10.691406 " fill-opacity="1" fill-rule="nonzero"/><path fill="#000000" d="M 174.171875 17.726562 C 174.171875 17.316406 174.09375 16.921875 173.933594 16.539062 C 173.777344 16.160156 173.554688 15.824219 173.261719 15.535156 C 172.972656 15.246094 172.636719 15.019531 172.257812 14.863281 C 171.878906 14.707031 171.484375 14.628906 171.070312 14.628906 C 170.660156 14.628906 170.265625 14.707031 169.886719 14.863281 C 169.507812 15.019531 169.171875 15.246094 168.882812 15.535156 C 168.589844 15.824219 168.367188 16.160156 168.210938 16.539062 C 168.050781 16.921875 167.972656 17.316406 167.972656 17.726562 C 167.972656 18.136719 168.050781 18.53125 168.210938 18.910156 C 168.367188 19.292969 168.589844 19.625 168.882812 19.917969 C 169.171875 20.207031 169.507812 20.429688 169.886719 20.589844 C 170.265625 20.746094 170.660156 20.824219 171.070312 20.824219 C 171.484375 20.824219 171.878906 20.746094 172.257812 20.589844 C 172.636719 20.429688 172.972656 20.207031 173.261719 19.917969 C 173.554688 19.625 173.777344 19.292969 173.933594 18.910156 C 174.09375 18.53125 174.171875 18.136719 174.171875 17.726562 Z M 174.171875 17.726562 " fill-opacity="1" fill-rule="nonzero"/></g></g></g><g clip-path="url(#521e1c7756)"><g clip-path="url(#9b8a8bd79b)"><g transform="matrix(1, 0, 0, 1, 51, 29)"><g clip-path="url(#1b31770e78)"><g clip-path="url(#c79e671d44)"><g clip-path="url(#ba9d6d2cc3)"><path fill="#000000" d="M 9.492188 0.445312 L 12.511719 3.464844 L 3.457031 12.515625 L 0.441406 9.5 Z M 9.492188 0.445312 " fill-opacity="1" fill-rule="nonzero"/></g></g></g></g></g></g><g clip-path="url(#37098c9d0b)"><g clip-path="url(#917c1e5562)"><g transform="matrix(1, 0, 0, 1, 51, 29)"><g clip-path="url(#7445ed0e6c)"><g clip-path="url(#b7f8666ee8)"><g clip-path="url(#47ebf0ed06)"><path fill="#000000" d="M 0.441406 3.457031 L 3.460938 0.4375 L 12.570312 9.550781 L 9.554688 12.566406 Z M 0.441406 3.457031 " fill-opacity="1" fill-rule="nonzero"/></g></g></g></g></g></g><g clip-path="url(#5c2849f66b)"><g clip-path="url(#c8805eef33)"><g transform="matrix(1, 0, 0, 1, 89, 56)"><g clip-path="url(#df40eecad3)"><g clip-path="url(#c957648a6b)"><g clip-path="url(#0f8994b37c)"><path fill="#000000" d="M 9.351562 0.929688 L 12.371094 3.945312 L 3.316406 13 L 0.300781 9.980469 Z M 9.351562 0.929688 " fill-opacity="1" fill-rule="nonzero"/></g></g></g></g></g></g><g clip-path="url(#7ccac9b25f)"><g clip-path="url(#d3f07850d4)"><g transform="matrix(1, 0, 0, 1, 89, 56)"><g clip-path="url(#ea1bd930a5)"><g clip-path="url(#5c27ce2c4a)"><g clip-path="url(#0b061e01cf)"><path fill="#000000" d="M 0.300781 3.9375 L 3.320312 0.921875 L 12.429688 10.03125 L 9.414062 13.050781 Z M 0.300781 3.9375 " fill-opacity="1" fill-rule="nonzero"/></g></g></g></g></g></g><g clip-path="url(#79ee2cf9cf)"><g clip-path="url(#7a4a6a0ff7)"><g transform="matrix(1, 0, 0, 1, 127, 4)"><g clip-path="url(#c367aceb1b)"><g clip-path="url(#db79d0153d)"><g clip-path="url(#126cb26536)"><path fill="#000000" d="M 9.203125 0.53125 L 12.222656 3.550781 L 3.167969 12.601562 L 0.152344 9.585938 Z M 9.203125 0.53125 " fill-opacity="1" fill-rule="nonzero"/></g></g></g></g></g></g><g clip-path="url(#d55d141f05)"><g clip-path="url(#406cd4031e)"><g transform="matrix(1, 0, 0, 1, 127, 4)"><g clip-path="url(#f6839f1b10)"><g clip-path="url(#0b34aa0781)"><g clip-path="url(#87ce7b248b)"><path fill="#000000" d="M 0.152344 3.542969 L 3.171875 0.523438 L 12.28125 9.636719 L 9.265625 12.652344 Z M 0.152344 3.542969 " fill-opacity="1" fill-rule="nonzero"/></g></g></g></g></g></g></g></g><g transform="matrix(1, 0, 0, 1, 8, 128)"><g clip-path="url(#c99cddc629)"><g fill="#002147" fill-opacity="1"><g transform="translate(0.921804, 65.590608)"><g><path d="M 41.984375 -14.984375 C 41.984375 -12.191406 41.390625 -9.773438 40.203125 -7.734375 C 39.023438 -5.703125 37.488281 -4.035156 35.59375 -2.734375 C 33.695312 -1.429688 31.632812 -0.472656 29.40625 0.140625 C 27.1875 0.753906 25.007812 1.0625 22.875 1.0625 C 20.75 1.0625 18.582031 0.753906 16.375 0.140625 C 14.175781 -0.472656 12.128906 -1.429688 10.234375 -2.734375 C 8.335938 -4.035156 6.804688 -5.703125 5.640625 -7.734375 C 4.484375 -9.773438 3.90625 -12.191406 3.90625 -14.984375 L 3.90625 -31.765625 C 3.90625 -34.554688 4.484375 -36.96875 5.640625 -39 C 6.804688 -41.039062 8.335938 -42.710938 10.234375 -44.015625 C 12.128906 -45.316406 14.175781 -46.273438 16.375 -46.890625 C 18.582031 -47.503906 20.75 -47.8125 22.875 -47.8125 C 25.007812 -47.8125 27.1875 -47.503906 29.40625 -46.890625 C 31.632812 -46.273438 33.695312 -45.316406 35.59375 -44.015625 C 37.488281 -42.710938 39.023438 -41.039062 40.203125 -39 C 41.390625 -36.96875 41.984375 -34.554688 41.984375 -31.765625 Z M 30.828125 -30.765625 C 30.828125 -33.035156 30.09375 -34.796875 28.625 -36.046875 C 27.15625 -37.304688 25.238281 -37.9375 22.875 -37.9375 C 20.550781 -37.9375 18.65625 -37.304688 17.1875 -36.046875 C 15.71875 -34.796875 14.984375 -33.035156 14.984375 -30.765625 L 14.984375 -15.984375 C 14.984375 -13.710938 15.71875 -11.945312 17.1875 -10.6875 C 18.65625 -9.4375 20.550781 -8.8125 22.875 -8.8125 C 25.238281 -8.8125 27.15625 -9.4375 28.625 -10.6875 C 30.09375 -11.945312 30.828125 -13.710938 30.828125 -15.984375 Z M 30.828125 -30.765625 "/></g></g></g><g fill="#dd3025" fill-opacity="1"><g transform="translate(46.751428, 65.590608)"><g><path d="M 41.28125 -13.859375 C 41.28125 -11.578125 40.734375 -9.515625 39.640625 -7.671875 C 38.554688 -5.828125 37.125 -4.253906 35.34375 -2.953125 C 33.570312 -1.648438 31.59375 -0.65625 29.40625 0.03125 C 27.226562 0.71875 25.03125 1.0625 22.8125 1.0625 C 20.675781 1.0625 18.492188 0.738281 16.265625 0.09375 C 14.046875 -0.539062 11.988281 -1.507812 10.09375 -2.8125 C 8.195312 -4.113281 6.664062 -5.769531 5.5 -7.78125 C 4.34375 -9.789062 3.765625 -12.191406 3.765625 -14.984375 L 3.765625 -31.765625 C 3.765625 -34.554688 4.34375 -36.957031 5.5 -38.96875 C 6.664062 -40.976562 8.195312 -42.632812 10.09375 -43.9375 C 11.988281 -45.238281 14.046875 -46.207031 16.265625 -46.84375 C 18.492188 -47.488281 20.675781 -47.8125 22.8125 -47.8125 C 25.738281 -47.8125 28.550781 -47.3125 31.25 -46.3125 C 33.957031 -45.320312 36.234375 -43.832031 38.078125 -41.84375 C 39.929688 -39.851562 41 -37.34375 41.28125 -34.3125 C 41.28125 -33.457031 41.113281 -32.898438 40.78125 -32.640625 C 40.445312 -32.378906 39.878906 -32.25 39.078125 -32.25 L 32.25 -32.25 C 31.5 -32.25 31.023438 -32.507812 30.828125 -33.03125 C 30.640625 -33.550781 30.40625 -34.023438 30.125 -34.453125 C 29.363281 -35.640625 28.4375 -36.503906 27.34375 -37.046875 C 26.257812 -37.597656 24.75 -37.875 22.8125 -37.875 C 20.488281 -37.875 18.59375 -37.242188 17.125 -35.984375 C 15.65625 -34.734375 14.921875 -32.992188 14.921875 -30.765625 L 14.921875 -15.984375 C 14.921875 -13.710938 15.65625 -11.957031 17.125 -10.71875 C 18.59375 -9.488281 20.488281 -8.875 22.8125 -8.875 C 24.75 -8.875 26.40625 -9.253906 27.78125 -10.015625 C 29.15625 -10.773438 29.984375 -12.007812 30.265625 -13.71875 C 30.359375 -14.425781 30.507812 -15.023438 30.71875 -15.515625 C 30.9375 -16.015625 31.425781 -16.265625 32.1875 -16.265625 L 39.140625 -16.265625 C 40.566406 -16.265625 41.28125 -15.460938 41.28125 -13.859375 Z M 41.28125 -13.859375 "/></g></g></g><g fill="#002147" fill-opacity="1"><g transform="translate(91.654461, 65.590608)"><g><path d="M 23.296875 -46.75 C 29.410156 -46.75 34.039062 -45.234375 37.1875 -42.203125 C 40.34375 -39.171875 41.921875 -35.191406 41.921875 -30.265625 C 41.921875 -25.335938 40.320312 -21.367188 37.125 -18.359375 C 33.925781 -15.359375 29.296875 -13.859375 23.234375 -13.859375 L 16.40625 -13.859375 L 16.40625 -2.0625 C 16.40625 -1.257812 16.226562 -0.710938 15.875 -0.421875 C 15.519531 -0.140625 15.007812 0 14.34375 0 L 7.3125 0 C 6.695312 0 6.195312 -0.140625 5.8125 -0.421875 C 5.4375 -0.710938 5.25 -1.257812 5.25 -2.0625 L 5.25 -44.6875 C 5.25 -45.351562 5.390625 -45.863281 5.671875 -46.21875 C 5.960938 -46.570312 6.507812 -46.75 7.3125 -46.75 Z M 23.234375 -23.453125 C 26.023438 -23.453125 28.046875 -24.113281 29.296875 -25.4375 C 30.554688 -26.757812 31.1875 -28.296875 31.1875 -30.046875 C 31.1875 -31.898438 30.554688 -33.476562 29.296875 -34.78125 C 28.046875 -36.082031 26.023438 -36.734375 23.234375 -36.734375 L 16.40625 -36.734375 L 16.40625 -23.453125 Z M 23.234375 -23.453125 "/></g></g></g><g fill="#002147" fill-opacity="1"><g transform="translate(136.269198, 65.590608)"><g><path d="M 41.34375 -46.75 C 42.007812 -46.75 42.519531 -46.601562 42.875 -46.3125 C 43.226562 -46.03125 43.40625 -45.488281 43.40625 -44.6875 L 43.40625 -2.0625 C 43.40625 -1.257812 43.226562 -0.710938 42.875 -0.421875 C 42.519531 -0.140625 42.007812 0 41.34375 0 L 34.3125 0 C 33.695312 0 33.195312 -0.140625 32.8125 -0.421875 C 32.4375 -0.710938 32.25 -1.257812 32.25 -2.0625 L 32.25 -18.109375 L 16.40625 -18.109375 L 16.40625 -2.0625 C 16.40625 -1.257812 16.226562 -0.710938 15.875 -0.421875 C 15.519531 -0.140625 15.007812 0 14.34375 0 L 7.3125 0 C 6.695312 0 6.195312 -0.140625 5.8125 -0.421875 C 5.4375 -0.710938 5.25 -1.257812 5.25 -2.0625 L 5.25 -44.6875 C 5.25 -45.488281 5.4375 -46.03125 5.8125 -46.3125 C 6.195312 -46.601562 6.695312 -46.75 7.3125 -46.75 L 14.34375 -46.75 C 15.007812 -46.75 15.519531 -46.601562 15.875 -46.3125 C 16.226562 -46.03125 16.40625 -45.488281 16.40625 -44.6875 L 16.40625 -28.625 L 32.25 -28.625 L 32.25 -44.6875 C 32.25 -45.488281 32.4375 -46.03125 32.8125 -46.3125 C 33.195312 -46.601562 33.695312 -46.75 34.3125 -46.75 Z M 41.34375 -46.75 "/></g></g></g></g></g></svg>