<svg xmlns="http://www.w3.org/2000/svg" xmlns:xlink="http://www.w3.org/1999/xlink" width="500" zoomAndPan="magnify" viewBox="0 0 375 374.999991" height="500" preserveAspectRatio="xMidYMid meet" version="1.0"><defs><g/><clipPath id="00047756e1"><rect x="0" width="51" y="0" height="38"/></clipPath><clipPath id="dacc1d2dad"><path d="M 333 167 L 337 167 L 337 172 L 333 172 Z M 333 167 " clip-rule="nonzero"/></clipPath><clipPath id="eb1cd70607"><path d="M 335.996094 167.910156 L 336.785156 168.699219 L 334.417969 171.066406 L 333.628906 170.277344 Z M 335.996094 167.910156 " clip-rule="nonzero"/></clipPath><clipPath id="010380e741"><path d="M 0.601562 0.761719 L 3.960938 0.761719 L 3.960938 4.121094 L 0.601562 4.121094 Z M 0.601562 0.761719 " clip-rule="nonzero"/></clipPath><clipPath id="977c3eab0f"><path d="M 2.996094 0.910156 L 3.785156 1.699219 L 1.417969 4.066406 L 0.628906 3.277344 Z M 2.996094 0.910156 " clip-rule="nonzero"/></clipPath><clipPath id="635a063e92"><rect x="0" width="4" y="0" height="5"/></clipPath><clipPath id="6275fb5e1c"><path d="M 333 167 L 337 167 L 337 172 L 333 172 Z M 333 167 " clip-rule="nonzero"/></clipPath><clipPath id="9374b512da"><path d="M 333.632812 168.699219 L 334.421875 167.910156 L 336.800781 170.292969 L 336.011719 171.078125 Z M 333.632812 168.699219 " clip-rule="nonzero"/></clipPath><clipPath id="b24847953d"><path d="M 0.601562 0.761719 L 3.960938 0.761719 L 3.960938 4.121094 L 0.601562 4.121094 Z M 0.601562 0.761719 " clip-rule="nonzero"/></clipPath><clipPath id="04f300851b"><path d="M 0.632812 1.699219 L 1.421875 0.910156 L 3.800781 3.292969 L 3.011719 4.078125 Z M 0.632812 1.699219 " clip-rule="nonzero"/></clipPath><clipPath id="be520425f6"><rect x="0" width="4" y="0" height="5"/></clipPath><clipPath id="659330b8cf"><path d="M 343 175 L 347 175 L 347 179 L 343 179 Z M 343 175 " clip-rule="nonzero"/></clipPath><clipPath id="a67c9439e4"><path d="M 345.894531 175.097656 L 346.683594 175.886719 L 344.316406 178.253906 L 343.527344 177.464844 Z M 345.894531 175.097656 " clip-rule="nonzero"/></clipPath><clipPath id="2121f569d8"><path d="M 0.441406 0 L 3.800781 0 L 3.800781 3.320312 L 0.441406 3.320312 Z M 0.441406 0 " clip-rule="nonzero"/></clipPath><clipPath id="65af5f45d6"><path d="M 2.894531 0.0976562 L 3.683594 0.886719 L 1.316406 3.253906 L 0.527344 2.464844 Z M 2.894531 0.0976562 " clip-rule="nonzero"/></clipPath><clipPath id="5d735af56b"><rect x="0" width="4" y="0" height="4"/></clipPath><clipPath id="5fa7350c59"><path d="M 343 175 L 347 175 L 347 179 L 343 179 Z M 343 175 " clip-rule="nonzero"/></clipPath><clipPath id="08d174e14e"><path d="M 343.53125 175.882812 L 344.320312 175.09375 L 346.699219 177.476562 L 345.910156 178.265625 Z M 343.53125 175.882812 " clip-rule="nonzero"/></clipPath><clipPath id="bd42c48f70"><path d="M 0.441406 0 L 3.800781 0 L 3.800781 3.320312 L 0.441406 3.320312 Z M 0.441406 0 " clip-rule="nonzero"/></clipPath><clipPath id="fadc104933"><path d="M 0.53125 0.882812 L 1.320312 0.09375 L 3.699219 2.476562 L 2.910156 3.265625 Z M 0.53125 0.882812 " clip-rule="nonzero"/></clipPath><clipPath id="ce8ed7adbc"><rect x="0" width="4" y="0" height="4"/></clipPath><clipPath id="63d21c8687"><path d="M 353 161 L 357 161 L 357 165 L 353 165 Z M 353 161 " clip-rule="nonzero"/></clipPath><clipPath id="a0ace5430a"><path d="M 355.789062 161.398438 L 356.578125 162.1875 L 354.210938 164.554688 L 353.421875 163.765625 Z M 355.789062 161.398438 " clip-rule="nonzero"/></clipPath><clipPath id="30e51a6c1f"><path d="M 0.28125 0.28125 L 3.640625 0.28125 L 3.640625 3.640625 L 0.28125 3.640625 Z M 0.28125 0.28125 " clip-rule="nonzero"/></clipPath><clipPath id="dfb8d18692"><path d="M 2.789062 0.398438 L 3.578125 1.1875 L 1.210938 3.554688 L 0.421875 2.765625 Z M 2.789062 0.398438 " clip-rule="nonzero"/></clipPath><clipPath id="44d726bdbe"><rect x="0" width="4" y="0" height="4"/></clipPath><clipPath id="f8a181e032"><path d="M 353 161 L 357 161 L 357 165 L 353 165 Z M 353 161 " clip-rule="nonzero"/></clipPath><clipPath id="2b4b505ce8"><path d="M 353.425781 162.1875 L 354.214844 161.398438 L 356.59375 163.777344 L 355.804688 164.566406 Z M 353.425781 162.1875 " clip-rule="nonzero"/></clipPath><clipPath id="5fff065447"><path d="M 0.28125 0.28125 L 3.640625 0.28125 L 3.640625 3.640625 L 0.28125 3.640625 Z M 0.28125 0.28125 " clip-rule="nonzero"/></clipPath><clipPath id="962a35dadb"><path d="M 0.425781 1.1875 L 1.214844 0.398438 L 3.59375 2.777344 L 2.804688 3.566406 Z M 0.425781 1.1875 " clip-rule="nonzero"/></clipPath><clipPath id="3da4fd829e"><rect x="0" width="4" y="0" height="4"/></clipPath></defs><g transform="matrix(1, 0, 0, 1, 320, 160)"><g clip-path="url(#00047756e1)"><path fill="#000000" d="M 5.320312 23.242188 L 15.21875 9.449219 " fill-opacity="1" fill-rule="nonzero"/><path fill="#000000" d="M 5.09375 23.082031 L 14.988281 9.285156 C 15.035156 9.222656 15.09375 9.183594 15.171875 9.171875 C 15.25 9.15625 15.316406 9.175781 15.378906 9.21875 C 15.445312 9.265625 15.480469 9.324219 15.492188 9.402344 C 15.507812 9.476562 15.492188 9.546875 15.445312 9.609375 L 5.546875 23.40625 C 5.503906 23.46875 5.441406 23.507812 5.367188 23.519531 C 5.289062 23.535156 5.21875 23.515625 5.15625 23.472656 C 5.09375 23.425781 5.054688 23.367188 5.042969 23.289062 C 5.03125 23.214844 5.046875 23.144531 5.09375 23.082031 Z M 5.09375 23.082031 " fill-opacity="1" fill-rule="nonzero"/><path fill="#000000" d="M 15.21875 9.449219 L 25.113281 16.804688 " fill-opacity="1" fill-rule="nonzero"/><path fill="#000000" d="M 15.382812 9.222656 L 25.28125 16.582031 C 25.34375 16.625 25.378906 16.6875 25.390625 16.765625 C 25.402344 16.839844 25.386719 16.910156 25.339844 16.972656 C 25.292969 17.035156 25.230469 17.070312 25.15625 17.082031 C 25.078125 17.09375 25.007812 17.078125 24.945312 17.03125 L 15.050781 9.671875 C 14.988281 9.625 14.953125 9.566406 14.941406 9.488281 C 14.929688 9.410156 14.945312 9.34375 14.992188 9.28125 C 15.039062 9.21875 15.101562 9.179688 15.175781 9.167969 C 15.253906 9.160156 15.324219 9.175781 15.382812 9.222656 Z M 25.394531 16.804688 C 25.394531 16.882812 25.367188 16.949219 25.3125 17.003906 C 25.257812 17.058594 25.191406 17.085938 25.113281 17.085938 C 25.035156 17.085938 24.96875 17.058594 24.914062 17.003906 C 24.859375 16.949219 24.832031 16.882812 24.832031 16.804688 C 24.832031 16.726562 24.859375 16.660156 24.914062 16.605469 C 24.96875 16.550781 25.035156 16.523438 25.113281 16.523438 C 25.191406 16.523438 25.257812 16.550781 25.3125 16.605469 C 25.367188 16.660156 25.394531 16.726562 25.394531 16.804688 Z M 25.394531 16.804688 " fill-opacity="1" fill-rule="nonzero"/><path fill="#000000" d="M 25.113281 16.804688 L 35.011719 3.007812 " fill-opacity="1" fill-rule="nonzero"/><path fill="#000000" d="M 24.886719 16.640625 L 34.78125 2.84375 C 34.828125 2.78125 34.890625 2.746094 34.964844 2.730469 C 35.042969 2.71875 35.109375 2.734375 35.175781 2.78125 C 35.238281 2.824219 35.273438 2.886719 35.289062 2.964844 C 35.300781 3.039062 35.285156 3.109375 35.238281 3.171875 L 25.34375 16.96875 C 25.296875 17.03125 25.234375 17.070312 25.160156 17.082031 C 25.082031 17.09375 25.011719 17.078125 24.949219 17.035156 C 24.886719 16.988281 24.851562 16.925781 24.835938 16.851562 C 24.824219 16.773438 24.839844 16.707031 24.886719 16.640625 Z M 24.886719 16.640625 " fill-opacity="1" fill-rule="nonzero"/><path fill="#000000" d="M 35.011719 3.007812 L 44.90625 4.847656 " fill-opacity="1" fill-rule="nonzero"/><path fill="#000000" d="M 35.0625 2.734375 L 44.957031 4.574219 C 45.035156 4.585938 45.09375 4.625 45.136719 4.691406 C 45.183594 4.753906 45.195312 4.824219 45.183594 4.898438 C 45.167969 4.976562 45.128906 5.035156 45.066406 5.078125 C 45.003906 5.125 44.933594 5.136719 44.855469 5.125 L 34.960938 3.285156 C 34.882812 3.269531 34.824219 3.230469 34.78125 3.167969 C 34.734375 3.105469 34.722656 3.035156 34.734375 2.957031 C 34.75 2.882812 34.789062 2.820312 34.851562 2.777344 C 34.914062 2.734375 34.984375 2.71875 35.0625 2.734375 Z M 44.941406 4.570312 C 45.019531 4.578125 45.082031 4.613281 45.128906 4.675781 C 45.175781 4.738281 45.195312 4.804688 45.1875 4.882812 C 45.175781 4.960938 45.140625 5.023438 45.078125 5.070312 C 45.019531 5.117188 44.949219 5.136719 44.871094 5.125 C 44.796875 5.117188 44.734375 5.082031 44.6875 5.019531 C 44.636719 4.960938 44.621094 4.890625 44.628906 4.8125 C 44.640625 4.738281 44.675781 4.675781 44.734375 4.628906 C 44.796875 4.578125 44.867188 4.5625 44.941406 4.570312 Z M 44.941406 4.570312 " fill-opacity="1" fill-rule="nonzero"/><path fill="#000000" d="M 6.128906 23.242188 C 6.128906 23.019531 6.050781 22.828125 5.894531 22.671875 C 5.734375 22.511719 5.542969 22.433594 5.320312 22.433594 C 5.097656 22.433594 4.90625 22.511719 4.746094 22.671875 C 4.589844 22.828125 4.511719 23.019531 4.511719 23.242188 C 4.511719 23.46875 4.589844 23.660156 4.746094 23.816406 C 4.90625 23.976562 5.097656 24.054688 5.320312 24.054688 C 5.542969 24.054688 5.734375 23.976562 5.894531 23.816406 C 6.050781 23.660156 6.128906 23.46875 6.128906 23.242188 Z M 6.128906 23.242188 " fill-opacity="1" fill-rule="nonzero"/><path fill="#000000" d="M 16.027344 9.449219 C 16.027344 9.222656 15.949219 9.03125 15.789062 8.875 C 15.632812 8.714844 15.441406 8.636719 15.21875 8.636719 C 14.992188 8.636719 14.804688 8.714844 14.644531 8.875 C 14.488281 9.03125 14.40625 9.222656 14.40625 9.449219 C 14.40625 9.671875 14.488281 9.863281 14.644531 10.019531 C 14.804688 10.179688 14.992188 10.257812 15.21875 10.257812 C 15.441406 10.257812 15.632812 10.179688 15.789062 10.019531 C 15.949219 9.863281 16.027344 9.671875 16.027344 9.449219 Z M 16.027344 9.449219 " fill-opacity="1" fill-rule="nonzero"/><path fill="#000000" d="M 25.925781 16.804688 C 25.925781 16.582031 25.84375 16.390625 25.6875 16.234375 C 25.527344 16.074219 25.335938 15.996094 25.113281 15.996094 C 24.890625 15.996094 24.699219 16.074219 24.542969 16.234375 C 24.382812 16.390625 24.304688 16.582031 24.304688 16.804688 C 24.304688 17.03125 24.382812 17.21875 24.542969 17.378906 C 24.699219 17.535156 24.890625 17.617188 25.113281 17.617188 C 25.335938 17.617188 25.527344 17.535156 25.6875 17.378906 C 25.84375 17.21875 25.925781 17.03125 25.925781 16.804688 Z M 25.925781 16.804688 " fill-opacity="1" fill-rule="nonzero"/><path fill="#000000" d="M 35.820312 3.007812 C 35.820312 2.785156 35.742188 2.59375 35.582031 2.4375 C 35.425781 2.277344 35.234375 2.199219 35.011719 2.199219 C 34.785156 2.199219 34.597656 2.277344 34.4375 2.4375 C 34.28125 2.59375 34.199219 2.785156 34.199219 3.007812 C 34.199219 3.234375 34.28125 3.421875 34.4375 3.582031 C 34.597656 3.738281 34.785156 3.820312 35.011719 3.820312 C 35.234375 3.820312 35.425781 3.738281 35.582031 3.582031 C 35.742188 3.421875 35.820312 3.234375 35.820312 3.007812 Z M 35.820312 3.007812 " fill-opacity="1" fill-rule="nonzero"/><path fill="#000000" d="M 45.71875 4.847656 C 45.71875 4.625 45.636719 4.433594 45.480469 4.277344 C 45.320312 4.117188 45.132812 4.039062 44.90625 4.039062 C 44.683594 4.039062 44.492188 4.117188 44.335938 4.277344 C 44.175781 4.433594 44.097656 4.625 44.097656 4.847656 C 44.097656 5.070312 44.175781 5.261719 44.335938 5.421875 C 44.492188 5.578125 44.683594 5.660156 44.90625 5.660156 C 45.132812 5.660156 45.320312 5.578125 45.480469 5.421875 C 45.636719 5.261719 45.71875 5.070312 45.71875 4.847656 Z M 45.71875 4.847656 " fill-opacity="1" fill-rule="nonzero"/></g></g><g clip-path="url(#dacc1d2dad)"><g clip-path="url(#eb1cd70607)"><g transform="matrix(1, 0, 0, 1, 333, 167)"><g clip-path="url(#635a063e92)"><g clip-path="url(#010380e741)"><g clip-path="url(#977c3eab0f)"><path fill="#000000" d="M 2.996094 0.910156 L 3.785156 1.699219 L 1.417969 4.066406 L 0.628906 3.277344 Z M 2.996094 0.910156 " fill-opacity="1" fill-rule="nonzero"/></g></g></g></g></g></g><g clip-path="url(#6275fb5e1c)"><g clip-path="url(#9374b512da)"><g transform="matrix(1, 0, 0, 1, 333, 167)"><g clip-path="url(#be520425f6)"><g clip-path="url(#b24847953d)"><g clip-path="url(#04f300851b)"><path fill="#000000" d="M 0.632812 1.699219 L 1.421875 0.910156 L 3.804688 3.292969 L 3.015625 4.082031 Z M 0.632812 1.699219 " fill-opacity="1" fill-rule="nonzero"/></g></g></g></g></g></g><g clip-path="url(#659330b8cf)"><g clip-path="url(#a67c9439e4)"><g transform="matrix(1, 0, 0, 1, 343, 175)"><g clip-path="url(#5d735af56b)"><g clip-path="url(#2121f569d8)"><g clip-path="url(#65af5f45d6)"><path fill="#000000" d="M 2.894531 0.0976562 L 3.683594 0.886719 L 1.316406 3.253906 L 0.527344 2.464844 Z M 2.894531 0.0976562 " fill-opacity="1" fill-rule="nonzero"/></g></g></g></g></g></g><g clip-path="url(#5fa7350c59)"><g clip-path="url(#08d174e14e)"><g transform="matrix(1, 0, 0, 1, 343, 175)"><g clip-path="url(#ce8ed7adbc)"><g clip-path="url(#bd42c48f70)"><g clip-path="url(#fadc104933)"><path fill="#000000" d="M 0.53125 0.882812 L 1.320312 0.09375 L 3.699219 2.476562 L 2.914062 3.265625 Z M 0.53125 0.882812 " fill-opacity="1" fill-rule="nonzero"/></g></g></g></g></g></g><g clip-path="url(#63d21c8687)"><g clip-path="url(#a0ace5430a)"><g transform="matrix(1, 0, 0, 1, 353, 161)"><g clip-path="url(#44d726bdbe)"><g clip-path="url(#30e51a6c1f)"><g clip-path="url(#dfb8d18692)"><path fill="#000000" d="M 2.789062 0.398438 L 3.578125 1.1875 L 1.210938 3.554688 L 0.421875 2.765625 Z M 2.789062 0.398438 " fill-opacity="1" fill-rule="nonzero"/></g></g></g></g></g></g><g clip-path="url(#f8a181e032)"><g clip-path="url(#2b4b505ce8)"><g transform="matrix(1, 0, 0, 1, 353, 161)"><g clip-path="url(#3da4fd829e)"><g clip-path="url(#5fff065447)"><g clip-path="url(#962a35dadb)"><path fill="#000000" d="M 0.425781 1.1875 L 1.214844 0.398438 L 3.597656 2.777344 L 2.808594 3.566406 Z M 0.425781 1.1875 " fill-opacity="1" fill-rule="nonzero"/></g></g></g></g></g></g><g fill="#002147" fill-opacity="1"><g transform="translate(5.144249, 178.395456)"><g><path d="M 12.421875 -4.4375 C 12.421875 -3.613281 12.242188 -2.898438 11.890625 -2.296875 C 11.546875 -1.691406 11.09375 -1.195312 10.53125 -0.8125 C 9.976562 -0.425781 9.367188 -0.144531 8.703125 0.03125 C 8.046875 0.21875 7.398438 0.3125 6.765625 0.3125 C 6.140625 0.3125 5.5 0.21875 4.84375 0.03125 C 4.195312 -0.144531 3.59375 -0.425781 3.03125 -0.8125 C 2.46875 -1.195312 2.015625 -1.691406 1.671875 -2.296875 C 1.328125 -2.898438 1.15625 -3.613281 1.15625 -4.4375 L 1.15625 -9.40625 C 1.15625 -10.226562 1.328125 -10.941406 1.671875 -11.546875 C 2.015625 -12.148438 2.46875 -12.644531 3.03125 -13.03125 C 3.59375 -13.414062 4.195312 -13.695312 4.84375 -13.875 C 5.5 -14.0625 6.140625 -14.15625 6.765625 -14.15625 C 7.398438 -14.15625 8.046875 -14.0625 8.703125 -13.875 C 9.367188 -13.695312 9.976562 -13.414062 10.53125 -13.03125 C 11.09375 -12.644531 11.546875 -12.148438 11.890625 -11.546875 C 12.242188 -10.941406 12.421875 -10.226562 12.421875 -9.40625 Z M 9.125 -9.109375 C 9.125 -9.773438 8.90625 -10.296875 8.46875 -10.671875 C 8.039062 -11.046875 7.472656 -11.234375 6.765625 -11.234375 C 6.078125 -11.234375 5.515625 -11.046875 5.078125 -10.671875 C 4.648438 -10.296875 4.4375 -9.773438 4.4375 -9.109375 L 4.4375 -4.734375 C 4.4375 -4.054688 4.648438 -3.53125 5.078125 -3.15625 C 5.515625 -2.789062 6.078125 -2.609375 6.765625 -2.609375 C 7.472656 -2.609375 8.039062 -2.789062 8.46875 -3.15625 C 8.90625 -3.53125 9.125 -4.054688 9.125 -4.734375 Z M 9.125 -9.109375 "/></g></g></g><g fill="#002147" fill-opacity="1"><g transform="translate(18.711906, 178.395456)"><g><path d="M 11.84375 -0.65625 C 11.925781 -0.53125 11.941406 -0.390625 11.890625 -0.234375 C 11.835938 -0.078125 11.738281 0 11.59375 0 L 9.1875 0 C 8.96875 0 8.796875 -0.03125 8.671875 -0.09375 C 8.554688 -0.15625 8.421875 -0.320312 8.265625 -0.59375 L 6.1875 -4.328125 L 4.078125 -0.59375 C 3.941406 -0.320312 3.8125 -0.15625 3.6875 -0.09375 C 3.570312 -0.03125 3.394531 0 3.15625 0 L 0.75 0 C 0.601562 0 0.503906 -0.078125 0.453125 -0.234375 C 0.398438 -0.390625 0.414062 -0.53125 0.5 -0.65625 L 4.25 -7.09375 L 0.4375 -13.25 C 0.382812 -13.363281 0.378906 -13.488281 0.421875 -13.625 C 0.460938 -13.769531 0.570312 -13.84375 0.75 -13.84375 L 3.234375 -13.84375 C 3.429688 -13.84375 3.585938 -13.796875 3.703125 -13.703125 C 3.816406 -13.609375 3.941406 -13.453125 4.078125 -13.234375 L 6.1875 -9.84375 L 8.265625 -13.234375 C 8.421875 -13.453125 8.550781 -13.609375 8.65625 -13.703125 C 8.757812 -13.796875 8.914062 -13.84375 9.125 -13.84375 L 11.59375 -13.84375 C 11.769531 -13.84375 11.882812 -13.769531 11.9375 -13.625 C 11.988281 -13.488281 11.976562 -13.363281 11.90625 -13.25 L 8.125 -7.09375 Z M 11.84375 -0.65625 "/></g></g></g><g fill="#dd3025" fill-opacity="1"><g transform="translate(31.042685, 178.395456)"><g><path d="M 11.421875 -7.171875 C 11.460938 -7.160156 11.582031 -7.09375 11.78125 -6.96875 C 11.988281 -6.851562 12.210938 -6.675781 12.453125 -6.4375 C 12.691406 -6.195312 12.898438 -5.878906 13.078125 -5.484375 C 13.265625 -5.097656 13.359375 -4.613281 13.359375 -4.03125 C 13.359375 -3.15625 13.144531 -2.414062 12.71875 -1.8125 C 12.289062 -1.207031 11.703125 -0.753906 10.953125 -0.453125 C 10.203125 -0.148438 9.332031 0 8.34375 0 L 2.171875 0 C 1.929688 0 1.769531 -0.0546875 1.6875 -0.171875 C 1.601562 -0.285156 1.5625 -0.429688 1.5625 -0.609375 L 1.5625 -13.25 C 1.5625 -13.445312 1.601562 -13.597656 1.6875 -13.703125 C 1.769531 -13.804688 1.929688 -13.859375 2.171875 -13.859375 L 8.0625 -13.859375 C 9.207031 -13.859375 10.132812 -13.675781 10.84375 -13.3125 C 11.5625 -12.957031 12.09375 -12.488281 12.4375 -11.90625 C 12.78125 -11.332031 12.953125 -10.710938 12.953125 -10.046875 C 12.953125 -9.347656 12.835938 -8.789062 12.609375 -8.375 C 12.378906 -7.96875 12.140625 -7.671875 11.890625 -7.484375 C 11.648438 -7.304688 11.492188 -7.203125 11.421875 -7.171875 Z M 8.390625 -2.984375 C 8.910156 -2.984375 9.3125 -3.09375 9.59375 -3.3125 C 9.875 -3.53125 10.015625 -3.878906 10.015625 -4.359375 C 10.015625 -4.847656 9.847656 -5.179688 9.515625 -5.359375 C 9.179688 -5.546875 8.765625 -5.640625 8.265625 -5.640625 L 7.78125 -5.640625 C 7.539062 -5.640625 7.378906 -5.691406 7.296875 -5.796875 C 7.210938 -5.910156 7.171875 -6.0625 7.171875 -6.25 L 7.171875 -7.84375 C 7.171875 -8.039062 7.210938 -8.191406 7.296875 -8.296875 C 7.378906 -8.398438 7.539062 -8.453125 7.78125 -8.453125 L 8.0625 -8.453125 C 8.675781 -8.453125 9.117188 -8.5625 9.390625 -8.78125 C 9.660156 -9 9.796875 -9.3125 9.796875 -9.71875 C 9.796875 -10.195312 9.640625 -10.507812 9.328125 -10.65625 C 9.023438 -10.8125 8.601562 -10.890625 8.0625 -10.890625 L 4.859375 -10.890625 L 4.859375 -2.984375 Z M 8.390625 -2.984375 "/></g></g></g><g fill="#dd3025" fill-opacity="1"><g transform="translate(45.493825, 178.395456)"><g><path d="M 12.890625 -0.671875 C 12.992188 -0.535156 13.015625 -0.390625 12.953125 -0.234375 C 12.898438 -0.078125 12.773438 0 12.578125 0 L 10.09375 0 C 9.84375 0 9.644531 -0.046875 9.5 -0.140625 C 9.351562 -0.242188 9.203125 -0.40625 9.046875 -0.625 L 6.765625 -4.015625 C 6.671875 -4.140625 6.609375 -4.273438 6.578125 -4.421875 C 6.554688 -4.566406 6.546875 -4.789062 6.546875 -5.09375 L 6.546875 -6.765625 C 6.546875 -6.960938 6.585938 -7.113281 6.671875 -7.21875 C 6.753906 -7.320312 6.914062 -7.375 7.15625 -7.375 L 7.578125 -7.375 C 8.085938 -7.375 8.546875 -7.535156 8.953125 -7.859375 C 9.359375 -8.179688 9.5625 -8.585938 9.5625 -9.078125 C 9.5625 -9.628906 9.375 -10.066406 9 -10.390625 C 8.632812 -10.710938 8.179688 -10.875 7.640625 -10.875 L 4.84375 -10.875 L 4.84375 -0.609375 C 4.84375 -0.367188 4.785156 -0.207031 4.671875 -0.125 C 4.566406 -0.0390625 4.421875 0 4.234375 0 L 2.140625 0 C 1.960938 0 1.820312 -0.0390625 1.71875 -0.125 C 1.613281 -0.207031 1.5625 -0.367188 1.5625 -0.609375 L 1.5625 -13.203125 C 1.5625 -13.398438 1.597656 -13.550781 1.671875 -13.65625 C 1.742188 -13.757812 1.898438 -13.8125 2.140625 -13.8125 L 7.4375 -13.8125 C 8.21875 -13.8125 8.859375 -13.757812 9.359375 -13.65625 C 9.859375 -13.5625 10.285156 -13.410156 10.640625 -13.203125 C 11.003906 -13.003906 11.332031 -12.757812 11.625 -12.46875 C 12.019531 -12.09375 12.320312 -11.613281 12.53125 -11.03125 C 12.738281 -10.457031 12.84375 -9.835938 12.84375 -9.171875 C 12.84375 -8.441406 12.6875 -7.785156 12.375 -7.203125 C 12.070312 -6.628906 11.695312 -6.15625 11.25 -5.78125 C 10.800781 -5.40625 10.359375 -5.140625 9.921875 -4.984375 Z M 12.890625 -0.671875 "/></g></g></g><g fill="#dd3025" fill-opacity="1"><g transform="translate(59.503224, 178.395456)"><g><path d="M 7.578125 -2.875 C 7.804688 -2.875 7.960938 -2.820312 8.046875 -2.71875 C 8.140625 -2.613281 8.1875 -2.460938 8.1875 -2.265625 L 8.1875 -0.609375 C 8.1875 -0.429688 8.140625 -0.285156 8.046875 -0.171875 C 7.960938 -0.0546875 7.804688 0 7.578125 0 L 1.625 0 C 1.382812 0 1.222656 -0.0546875 1.140625 -0.171875 C 1.054688 -0.285156 1.015625 -0.429688 1.015625 -0.609375 L 1.015625 -2.265625 C 1.015625 -2.460938 1.054688 -2.613281 1.140625 -2.71875 C 1.222656 -2.820312 1.382812 -2.875 1.625 -2.875 L 2.9375 -2.875 L 2.9375 -10.921875 L 1.65625 -10.921875 C 1.414062 -10.921875 1.253906 -10.972656 1.171875 -11.078125 C 1.085938 -11.191406 1.046875 -11.34375 1.046875 -11.53125 L 1.046875 -13.234375 C 1.046875 -13.421875 1.085938 -13.566406 1.171875 -13.671875 C 1.253906 -13.785156 1.414062 -13.84375 1.65625 -13.84375 L 7.515625 -13.84375 C 7.742188 -13.84375 7.898438 -13.785156 7.984375 -13.671875 C 8.078125 -13.566406 8.125 -13.421875 8.125 -13.234375 L 8.125 -11.53125 C 8.125 -11.34375 8.078125 -11.191406 7.984375 -11.078125 C 7.898438 -10.972656 7.742188 -10.921875 7.515625 -10.921875 L 6.25 -10.921875 L 6.25 -2.875 Z M 7.578125 -2.875 "/></g></g></g><g fill="#dd3025" fill-opacity="1"><g transform="translate(68.842826, 178.395456)"><g><path d="M 6.875 -13.84375 C 7.507812 -13.84375 8.15625 -13.742188 8.8125 -13.546875 C 9.46875 -13.359375 10.078125 -13.078125 10.640625 -12.703125 C 11.203125 -12.328125 11.65625 -11.835938 12 -11.234375 C 12.351562 -10.640625 12.53125 -9.929688 12.53125 -9.109375 L 12.53125 -4.734375 C 12.53125 -3.898438 12.351562 -3.1875 12 -2.59375 C 11.65625 -2 11.203125 -1.507812 10.640625 -1.125 C 10.078125 -0.738281 9.46875 -0.453125 8.8125 -0.265625 C 8.15625 -0.0859375 7.507812 0 6.875 0 L 2.171875 0 C 1.929688 0 1.769531 -0.0546875 1.6875 -0.171875 C 1.601562 -0.285156 1.5625 -0.429688 1.5625 -0.609375 L 1.5625 -13.234375 C 1.5625 -13.421875 1.601562 -13.566406 1.6875 -13.671875 C 1.769531 -13.785156 1.929688 -13.84375 2.171875 -13.84375 Z M 9.234375 -8.8125 C 9.234375 -9.46875 9.015625 -9.984375 8.578125 -10.359375 C 8.140625 -10.734375 7.570312 -10.921875 6.875 -10.921875 L 4.859375 -10.921875 L 4.859375 -2.921875 L 6.875 -2.921875 C 7.570312 -2.921875 8.140625 -3.101562 8.578125 -3.46875 C 9.015625 -3.832031 9.234375 -4.351562 9.234375 -5.03125 Z M 9.234375 -8.8125 "/></g></g></g><g fill="#dd3025" fill-opacity="1"><g transform="translate(82.515665, 178.395456)"><g><path d="M 11.84375 -7.71875 C 12.082031 -7.71875 12.242188 -7.664062 12.328125 -7.5625 C 12.410156 -7.457031 12.453125 -7.304688 12.453125 -7.109375 L 12.453125 -4.0625 C 12.410156 -3.300781 12.207031 -2.644531 11.84375 -2.09375 C 11.476562 -1.539062 11.015625 -1.085938 10.453125 -0.734375 C 9.890625 -0.378906 9.289062 -0.117188 8.65625 0.046875 C 8.019531 0.222656 7.398438 0.3125 6.796875 0.3125 C 6.179688 0.3125 5.539062 0.226562 4.875 0.0625 C 4.21875 -0.101562 3.601562 -0.363281 3.03125 -0.71875 C 2.46875 -1.082031 2.007812 -1.550781 1.65625 -2.125 C 1.3125 -2.707031 1.140625 -3.414062 1.140625 -4.25 L 1.140625 -9.421875 C 1.140625 -10.242188 1.3125 -10.957031 1.65625 -11.5625 C 2.007812 -12.164062 2.46875 -12.65625 3.03125 -13.03125 C 3.601562 -13.414062 4.21875 -13.695312 4.875 -13.875 C 5.539062 -14.0625 6.179688 -14.15625 6.796875 -14.15625 C 7.453125 -14.15625 8.113281 -14.0625 8.78125 -13.875 C 9.445312 -13.6875 10.054688 -13.410156 10.609375 -13.046875 C 11.160156 -12.679688 11.601562 -12.226562 11.9375 -11.6875 C 12.28125 -11.144531 12.453125 -10.523438 12.453125 -9.828125 C 12.453125 -9.566406 12.410156 -9.398438 12.328125 -9.328125 C 12.242188 -9.265625 12.082031 -9.234375 11.84375 -9.234375 L 9.796875 -9.234375 C 9.503906 -9.234375 9.34375 -9.316406 9.3125 -9.484375 C 9.289062 -9.648438 9.25 -9.804688 9.1875 -9.953125 C 9.070312 -10.273438 8.816406 -10.566406 8.421875 -10.828125 C 8.035156 -11.097656 7.492188 -11.234375 6.796875 -11.234375 C 6.109375 -11.234375 5.550781 -11.019531 5.125 -10.59375 C 4.695312 -10.175781 4.484375 -9.628906 4.484375 -8.953125 L 4.484375 -4.734375 C 4.484375 -4.054688 4.695312 -3.53125 5.125 -3.15625 C 5.550781 -2.789062 6.109375 -2.609375 6.796875 -2.609375 C 7.484375 -2.609375 8.039062 -2.78125 8.46875 -3.125 C 8.90625 -3.46875 9.125 -4.046875 9.125 -4.859375 L 7.234375 -4.859375 C 6.992188 -4.859375 6.832031 -4.910156 6.75 -5.015625 C 6.664062 -5.128906 6.625 -5.28125 6.625 -5.46875 L 6.625 -7.109375 C 6.625 -7.304688 6.664062 -7.457031 6.75 -7.5625 C 6.832031 -7.664062 6.992188 -7.71875 7.234375 -7.71875 Z M 11.84375 -7.71875 "/></g></g></g><g fill="#dd3025" fill-opacity="1"><g transform="translate(96.104356, 178.395456)"><g><path d="M 11.59375 -2.9375 C 11.832031 -2.9375 11.992188 -2.882812 12.078125 -2.78125 C 12.160156 -2.675781 12.203125 -2.523438 12.203125 -2.328125 L 12.203125 -0.609375 C 12.203125 -0.429688 12.160156 -0.285156 12.078125 -0.171875 C 11.992188 -0.0546875 11.832031 0 11.59375 0 L 2.171875 0 C 1.929688 0 1.769531 -0.0546875 1.6875 -0.171875 C 1.601562 -0.285156 1.5625 -0.429688 1.5625 -0.609375 L 1.5625 -13.234375 C 1.5625 -13.421875 1.601562 -13.566406 1.6875 -13.671875 C 1.769531 -13.785156 1.929688 -13.84375 2.171875 -13.84375 L 11.234375 -13.84375 C 11.472656 -13.84375 11.632812 -13.785156 11.71875 -13.671875 C 11.800781 -13.566406 11.84375 -13.421875 11.84375 -13.234375 L 11.84375 -11.484375 C 11.84375 -11.296875 11.800781 -11.144531 11.71875 -11.03125 C 11.632812 -10.925781 11.472656 -10.875 11.234375 -10.875 L 4.875 -10.875 L 4.875 -8.578125 L 10.515625 -8.578125 C 10.753906 -8.578125 10.914062 -8.523438 11 -8.421875 C 11.082031 -8.316406 11.125 -8.164062 11.125 -7.96875 L 11.125 -6.328125 C 11.125 -6.148438 11.082031 -6.003906 11 -5.890625 C 10.914062 -5.773438 10.753906 -5.71875 10.515625 -5.71875 L 4.875 -5.71875 L 4.875 -2.9375 Z M 11.59375 -2.9375 "/></g></g></g><g fill="#ff0000" fill-opacity="1"><g transform="translate(109.300493, 178.395456)"><g/></g></g><g fill="#002147" fill-opacity="1"><g transform="translate(115.007523, 178.395456)"><g><path d="M 6.890625 -13.84375 C 8.703125 -13.84375 10.070312 -13.390625 11 -12.484375 C 11.9375 -11.585938 12.40625 -10.410156 12.40625 -8.953125 C 12.40625 -7.492188 11.929688 -6.316406 10.984375 -5.421875 C 10.035156 -4.535156 8.664062 -4.09375 6.875 -4.09375 L 4.859375 -4.09375 L 4.859375 -0.609375 C 4.859375 -0.367188 4.804688 -0.207031 4.703125 -0.125 C 4.597656 -0.0390625 4.445312 0 4.25 0 L 2.171875 0 C 1.984375 0 1.832031 -0.0390625 1.71875 -0.125 C 1.613281 -0.207031 1.5625 -0.367188 1.5625 -0.609375 L 1.5625 -13.234375 C 1.5625 -13.421875 1.601562 -13.566406 1.6875 -13.671875 C 1.769531 -13.785156 1.929688 -13.84375 2.171875 -13.84375 Z M 6.875 -6.9375 C 7.707031 -6.9375 8.304688 -7.132812 8.671875 -7.53125 C 9.046875 -7.925781 9.234375 -8.378906 9.234375 -8.890625 C 9.234375 -9.441406 9.046875 -9.910156 8.671875 -10.296875 C 8.304688 -10.679688 7.707031 -10.875 6.875 -10.875 L 4.859375 -10.875 L 4.859375 -6.9375 Z M 6.875 -6.9375 "/></g></g></g><g fill="#002147" fill-opacity="1"><g transform="translate(128.217587, 178.395456)"><g><path d="M 12.421875 -4.4375 C 12.421875 -3.613281 12.242188 -2.898438 11.890625 -2.296875 C 11.546875 -1.691406 11.09375 -1.195312 10.53125 -0.8125 C 9.976562 -0.425781 9.367188 -0.144531 8.703125 0.03125 C 8.046875 0.21875 7.398438 0.3125 6.765625 0.3125 C 6.140625 0.3125 5.5 0.21875 4.84375 0.03125 C 4.195312 -0.144531 3.59375 -0.425781 3.03125 -0.8125 C 2.46875 -1.195312 2.015625 -1.691406 1.671875 -2.296875 C 1.328125 -2.898438 1.15625 -3.613281 1.15625 -4.4375 L 1.15625 -9.40625 C 1.15625 -10.226562 1.328125 -10.941406 1.671875 -11.546875 C 2.015625 -12.148438 2.46875 -12.644531 3.03125 -13.03125 C 3.59375 -13.414062 4.195312 -13.695312 4.84375 -13.875 C 5.5 -14.0625 6.140625 -14.15625 6.765625 -14.15625 C 7.398438 -14.15625 8.046875 -14.0625 8.703125 -13.875 C 9.367188 -13.695312 9.976562 -13.414062 10.53125 -13.03125 C 11.09375 -12.644531 11.546875 -12.148438 11.890625 -11.546875 C 12.242188 -10.941406 12.421875 -10.226562 12.421875 -9.40625 Z M 9.125 -9.109375 C 9.125 -9.773438 8.90625 -10.296875 8.46875 -10.671875 C 8.039062 -11.046875 7.472656 -11.234375 6.765625 -11.234375 C 6.078125 -11.234375 5.515625 -11.046875 5.078125 -10.671875 C 4.648438 -10.296875 4.4375 -9.773438 4.4375 -9.109375 L 4.4375 -4.734375 C 4.4375 -4.054688 4.648438 -3.53125 5.078125 -3.15625 C 5.515625 -2.789062 6.078125 -2.609375 6.765625 -2.609375 C 7.472656 -2.609375 8.039062 -2.789062 8.46875 -3.15625 C 8.90625 -3.53125 9.125 -4.054688 9.125 -4.734375 Z M 9.125 -9.109375 "/></g></g></g><g fill="#002147" fill-opacity="1"><g transform="translate(141.785243, 178.395456)"><g><path d="M 10.921875 -2.9375 C 11.148438 -2.9375 11.304688 -2.882812 11.390625 -2.78125 C 11.484375 -2.675781 11.53125 -2.523438 11.53125 -2.328125 L 11.53125 -0.609375 C 11.53125 -0.429688 11.484375 -0.285156 11.390625 -0.171875 C 11.304688 -0.0546875 11.148438 0 10.921875 0 L 2.171875 0 C 1.929688 0 1.769531 -0.0546875 1.6875 -0.171875 C 1.601562 -0.285156 1.5625 -0.429688 1.5625 -0.609375 L 1.5625 -13.234375 C 1.5625 -13.472656 1.613281 -13.632812 1.71875 -13.71875 C 1.832031 -13.800781 1.984375 -13.84375 2.171875 -13.84375 L 4.25 -13.84375 C 4.445312 -13.84375 4.597656 -13.800781 4.703125 -13.71875 C 4.804688 -13.632812 4.859375 -13.472656 4.859375 -13.234375 L 4.859375 -2.9375 Z M 10.921875 -2.9375 "/></g></g></g><g fill="#002147" fill-opacity="1"><g transform="translate(154.027686, 178.395456)"><g><path d="M 7.578125 -2.875 C 7.804688 -2.875 7.960938 -2.820312 8.046875 -2.71875 C 8.140625 -2.613281 8.1875 -2.460938 8.1875 -2.265625 L 8.1875 -0.609375 C 8.1875 -0.429688 8.140625 -0.285156 8.046875 -0.171875 C 7.960938 -0.0546875 7.804688 0 7.578125 0 L 1.625 0 C 1.382812 0 1.222656 -0.0546875 1.140625 -0.171875 C 1.054688 -0.285156 1.015625 -0.429688 1.015625 -0.609375 L 1.015625 -2.265625 C 1.015625 -2.460938 1.054688 -2.613281 1.140625 -2.71875 C 1.222656 -2.820312 1.382812 -2.875 1.625 -2.875 L 2.9375 -2.875 L 2.9375 -10.921875 L 1.65625 -10.921875 C 1.414062 -10.921875 1.253906 -10.972656 1.171875 -11.078125 C 1.085938 -11.191406 1.046875 -11.34375 1.046875 -11.53125 L 1.046875 -13.234375 C 1.046875 -13.421875 1.085938 -13.566406 1.171875 -13.671875 C 1.253906 -13.785156 1.414062 -13.84375 1.65625 -13.84375 L 7.515625 -13.84375 C 7.742188 -13.84375 7.898438 -13.785156 7.984375 -13.671875 C 8.078125 -13.566406 8.125 -13.421875 8.125 -13.234375 L 8.125 -11.53125 C 8.125 -11.34375 8.078125 -11.191406 7.984375 -11.078125 C 7.898438 -10.972656 7.742188 -10.921875 7.515625 -10.921875 L 6.25 -10.921875 L 6.25 -2.875 Z M 7.578125 -2.875 "/></g></g></g><g fill="#002147" fill-opacity="1"><g transform="translate(163.367288, 178.395456)"><g><path d="M 12.21875 -4.09375 C 12.21875 -3.425781 12.054688 -2.816406 11.734375 -2.265625 C 11.410156 -1.722656 10.984375 -1.257812 10.453125 -0.875 C 9.929688 -0.488281 9.347656 -0.195312 8.703125 0 C 8.054688 0.207031 7.40625 0.3125 6.75 0.3125 C 6.113281 0.3125 5.46875 0.21875 4.8125 0.03125 C 4.15625 -0.15625 3.546875 -0.441406 2.984375 -0.828125 C 2.421875 -1.210938 1.96875 -1.703125 1.625 -2.296875 C 1.28125 -2.898438 1.109375 -3.613281 1.109375 -4.4375 L 1.109375 -9.40625 C 1.109375 -10.226562 1.28125 -10.9375 1.625 -11.53125 C 1.96875 -12.125 2.421875 -12.613281 2.984375 -13 C 3.546875 -13.394531 4.15625 -13.6875 4.8125 -13.875 C 5.46875 -14.0625 6.113281 -14.15625 6.75 -14.15625 C 7.625 -14.15625 8.457031 -14.003906 9.25 -13.703125 C 10.050781 -13.410156 10.722656 -12.96875 11.265625 -12.375 C 11.816406 -11.789062 12.132812 -11.050781 12.21875 -10.15625 C 12.21875 -9.90625 12.164062 -9.738281 12.0625 -9.65625 C 11.96875 -9.582031 11.800781 -9.546875 11.5625 -9.546875 L 9.546875 -9.546875 C 9.328125 -9.546875 9.1875 -9.625 9.125 -9.78125 C 9.070312 -9.9375 9.003906 -10.078125 8.921875 -10.203125 C 8.691406 -10.546875 8.414062 -10.796875 8.09375 -10.953125 C 7.769531 -11.117188 7.320312 -11.203125 6.75 -11.203125 C 6.0625 -11.203125 5.5 -11.015625 5.0625 -10.640625 C 4.632812 -10.273438 4.421875 -9.765625 4.421875 -9.109375 L 4.421875 -4.734375 C 4.421875 -4.054688 4.632812 -3.535156 5.0625 -3.171875 C 5.5 -2.804688 6.0625 -2.625 6.75 -2.625 C 7.320312 -2.625 7.8125 -2.734375 8.21875 -2.953125 C 8.625 -3.179688 8.867188 -3.550781 8.953125 -4.0625 C 8.984375 -4.269531 9.03125 -4.445312 9.09375 -4.59375 C 9.15625 -4.738281 9.300781 -4.8125 9.53125 -4.8125 L 11.59375 -4.8125 C 12.007812 -4.8125 12.21875 -4.570312 12.21875 -4.09375 Z M 12.21875 -4.09375 "/></g></g></g><g fill="#002147" fill-opacity="1"><g transform="translate(176.661488, 178.395456)"><g><path d="M 12.09375 -13.84375 C 12.289062 -13.84375 12.410156 -13.769531 12.453125 -13.625 C 12.492188 -13.488281 12.484375 -13.363281 12.421875 -13.25 L 8.09375 -5.1875 L 8.09375 -0.609375 C 8.09375 -0.367188 8.039062 -0.207031 7.9375 -0.125 C 7.832031 -0.0390625 7.679688 0 7.484375 0 L 5.390625 0 C 5.191406 0 5.039062 -0.0390625 4.9375 -0.125 C 4.832031 -0.207031 4.78125 -0.367188 4.78125 -0.609375 L 4.78125 -5.1875 L 0.265625 -13.25 C 0.210938 -13.363281 0.207031 -13.488281 0.25 -13.625 C 0.289062 -13.769531 0.410156 -13.84375 0.609375 -13.84375 L 3.03125 -13.84375 C 3.269531 -13.84375 3.457031 -13.804688 3.59375 -13.734375 C 3.738281 -13.660156 3.878906 -13.484375 4.015625 -13.203125 L 6.484375 -8.6875 L 8.859375 -13.203125 C 8.992188 -13.484375 9.128906 -13.660156 9.265625 -13.734375 C 9.398438 -13.804688 9.585938 -13.84375 9.828125 -13.84375 Z M 12.09375 -13.84375 "/></g></g></g><g fill="#002147" fill-opacity="1"><g transform="translate(189.366707, 178.395456)"><g/></g></g><g fill="#002147" fill-opacity="1"><g transform="translate(195.067226, 178.395456)"><g><path d="M 12.234375 -13.84375 C 12.429688 -13.84375 12.582031 -13.800781 12.6875 -13.71875 C 12.789062 -13.632812 12.84375 -13.472656 12.84375 -13.234375 L 12.84375 -0.609375 C 12.84375 -0.367188 12.789062 -0.207031 12.6875 -0.125 C 12.582031 -0.0390625 12.429688 0 12.234375 0 L 10.15625 0 C 9.976562 0 9.832031 -0.0390625 9.71875 -0.125 C 9.601562 -0.207031 9.546875 -0.367188 9.546875 -0.609375 L 9.546875 -5.359375 L 4.859375 -5.359375 L 4.859375 -0.609375 C 4.859375 -0.367188 4.804688 -0.207031 4.703125 -0.125 C 4.597656 -0.0390625 4.445312 0 4.25 0 L 2.171875 0 C 1.984375 0 1.832031 -0.0390625 1.71875 -0.125 C 1.613281 -0.207031 1.5625 -0.367188 1.5625 -0.609375 L 1.5625 -13.234375 C 1.5625 -13.472656 1.613281 -13.632812 1.71875 -13.71875 C 1.832031 -13.800781 1.984375 -13.84375 2.171875 -13.84375 L 4.25 -13.84375 C 4.445312 -13.84375 4.597656 -13.800781 4.703125 -13.71875 C 4.804688 -13.632812 4.859375 -13.472656 4.859375 -13.234375 L 4.859375 -8.46875 L 9.546875 -8.46875 L 9.546875 -13.234375 C 9.546875 -13.472656 9.601562 -13.632812 9.71875 -13.71875 C 9.832031 -13.800781 9.976562 -13.84375 10.15625 -13.84375 Z M 12.234375 -13.84375 "/></g></g></g><g fill="#002147" fill-opacity="1"><g transform="translate(209.476297, 178.395456)"><g><path d="M 13.453125 -0.59375 C 13.515625 -0.46875 13.53125 -0.335938 13.5 -0.203125 C 13.46875 -0.0664062 13.335938 0 13.109375 0 L 10.890625 0 C 10.671875 0 10.503906 -0.0390625 10.390625 -0.125 C 10.273438 -0.207031 10.175781 -0.375 10.09375 -0.625 L 9.5 -2.296875 L 4.359375 -2.296875 L 3.765625 -0.625 C 3.679688 -0.375 3.585938 -0.207031 3.484375 -0.125 C 3.378906 -0.0390625 3.207031 0 2.96875 0 L 0.75 0 C 0.53125 0 0.398438 -0.0664062 0.359375 -0.203125 C 0.328125 -0.335938 0.34375 -0.46875 0.40625 -0.59375 L 5.0625 -13.1875 C 5.144531 -13.40625 5.253906 -13.566406 5.390625 -13.671875 C 5.523438 -13.785156 5.707031 -13.84375 5.9375 -13.84375 L 7.953125 -13.84375 C 8.191406 -13.84375 8.367188 -13.785156 8.484375 -13.671875 C 8.609375 -13.566406 8.71875 -13.40625 8.8125 -13.1875 Z M 6.9375 -9.890625 L 5.359375 -5.234375 L 8.515625 -5.234375 Z M 6.9375 -9.890625 "/></g></g></g><g fill="#002147" fill-opacity="1"><g transform="translate(223.254308, 178.395456)"><g><path d="M 12.21875 -4.09375 C 12.21875 -3.425781 12.054688 -2.816406 11.734375 -2.265625 C 11.410156 -1.722656 10.984375 -1.257812 10.453125 -0.875 C 9.929688 -0.488281 9.347656 -0.195312 8.703125 0 C 8.054688 0.207031 7.40625 0.3125 6.75 0.3125 C 6.113281 0.3125 5.46875 0.21875 4.8125 0.03125 C 4.15625 -0.15625 3.546875 -0.441406 2.984375 -0.828125 C 2.421875 -1.210938 1.96875 -1.703125 1.625 -2.296875 C 1.28125 -2.898438 1.109375 -3.613281 1.109375 -4.4375 L 1.109375 -9.40625 C 1.109375 -10.226562 1.28125 -10.9375 1.625 -11.53125 C 1.96875 -12.125 2.421875 -12.613281 2.984375 -13 C 3.546875 -13.394531 4.15625 -13.6875 4.8125 -13.875 C 5.46875 -14.0625 6.113281 -14.15625 6.75 -14.15625 C 7.625 -14.15625 8.457031 -14.003906 9.25 -13.703125 C 10.050781 -13.410156 10.722656 -12.96875 11.265625 -12.375 C 11.816406 -11.789062 12.132812 -11.050781 12.21875 -10.15625 C 12.21875 -9.90625 12.164062 -9.738281 12.0625 -9.65625 C 11.96875 -9.582031 11.800781 -9.546875 11.5625 -9.546875 L 9.546875 -9.546875 C 9.328125 -9.546875 9.1875 -9.625 9.125 -9.78125 C 9.070312 -9.9375 9.003906 -10.078125 8.921875 -10.203125 C 8.691406 -10.546875 8.414062 -10.796875 8.09375 -10.953125 C 7.769531 -11.117188 7.320312 -11.203125 6.75 -11.203125 C 6.0625 -11.203125 5.5 -11.015625 5.0625 -10.640625 C 4.632812 -10.273438 4.421875 -9.765625 4.421875 -9.109375 L 4.421875 -4.734375 C 4.421875 -4.054688 4.632812 -3.535156 5.0625 -3.171875 C 5.5 -2.804688 6.0625 -2.625 6.75 -2.625 C 7.320312 -2.625 7.8125 -2.734375 8.21875 -2.953125 C 8.625 -3.179688 8.867188 -3.550781 8.953125 -4.0625 C 8.984375 -4.269531 9.03125 -4.445312 9.09375 -4.59375 C 9.15625 -4.738281 9.300781 -4.8125 9.53125 -4.8125 L 11.59375 -4.8125 C 12.007812 -4.8125 12.21875 -4.570312 12.21875 -4.09375 Z M 12.21875 -4.09375 "/></g></g></g><g fill="#002147" fill-opacity="1"><g transform="translate(236.548508, 178.395456)"><g><path d="M 13.078125 -13.84375 C 13.273438 -13.84375 13.382812 -13.765625 13.40625 -13.609375 C 13.425781 -13.460938 13.390625 -13.34375 13.296875 -13.25 L 8.5625 -8.125 L 13.078125 -0.671875 C 13.160156 -0.535156 13.175781 -0.390625 13.125 -0.234375 C 13.082031 -0.078125 12.960938 0 12.765625 0 L 10.203125 0 C 9.953125 0 9.75 -0.0546875 9.59375 -0.171875 C 9.4375 -0.285156 9.289062 -0.453125 9.15625 -0.671875 C 9.15625 -0.671875 9.050781 -0.84375 8.84375 -1.1875 C 8.632812 -1.53125 8.375 -1.960938 8.0625 -2.484375 C 7.75 -3.015625 7.421875 -3.566406 7.078125 -4.140625 C 6.734375 -4.710938 6.421875 -5.238281 6.140625 -5.71875 L 4.84375 -4.359375 L 4.84375 -0.609375 C 4.84375 -0.367188 4.785156 -0.207031 4.671875 -0.125 C 4.566406 -0.0390625 4.425781 0 4.25 0 L 2.171875 0 C 1.972656 0 1.820312 -0.0390625 1.71875 -0.125 C 1.613281 -0.207031 1.5625 -0.367188 1.5625 -0.609375 L 1.5625 -13.234375 C 1.5625 -13.472656 1.613281 -13.632812 1.71875 -13.71875 C 1.820312 -13.800781 1.972656 -13.84375 2.171875 -13.84375 L 4.25 -13.84375 C 4.425781 -13.84375 4.566406 -13.800781 4.671875 -13.71875 C 4.785156 -13.632812 4.84375 -13.472656 4.84375 -13.234375 L 4.84375 -8.53125 L 9.1875 -13.328125 C 9.394531 -13.566406 9.5625 -13.710938 9.6875 -13.765625 C 9.820312 -13.816406 10.003906 -13.84375 10.234375 -13.84375 Z M 13.078125 -13.84375 "/></g></g></g><g fill="#002147" fill-opacity="1"><g transform="translate(250.305484, 178.395456)"><g><path d="M 13.453125 -0.59375 C 13.515625 -0.46875 13.53125 -0.335938 13.5 -0.203125 C 13.46875 -0.0664062 13.335938 0 13.109375 0 L 10.890625 0 C 10.671875 0 10.503906 -0.0390625 10.390625 -0.125 C 10.273438 -0.207031 10.175781 -0.375 10.09375 -0.625 L 9.5 -2.296875 L 4.359375 -2.296875 L 3.765625 -0.625 C 3.679688 -0.375 3.585938 -0.207031 3.484375 -0.125 C 3.378906 -0.0390625 3.207031 0 2.96875 0 L 0.75 0 C 0.53125 0 0.398438 -0.0664062 0.359375 -0.203125 C 0.328125 -0.335938 0.34375 -0.46875 0.40625 -0.59375 L 5.0625 -13.1875 C 5.144531 -13.40625 5.253906 -13.566406 5.390625 -13.671875 C 5.523438 -13.785156 5.707031 -13.84375 5.9375 -13.84375 L 7.953125 -13.84375 C 8.191406 -13.84375 8.367188 -13.785156 8.484375 -13.671875 C 8.609375 -13.566406 8.71875 -13.40625 8.8125 -13.1875 Z M 6.9375 -9.890625 L 5.359375 -5.234375 L 8.515625 -5.234375 Z M 6.9375 -9.890625 "/></g></g></g><g fill="#002147" fill-opacity="1"><g transform="translate(264.083495, 178.395456)"><g><path d="M 10.921875 -13.84375 C 11.148438 -13.84375 11.304688 -13.785156 11.390625 -13.671875 C 11.484375 -13.566406 11.53125 -13.421875 11.53125 -13.234375 L 11.53125 -11.484375 C 11.53125 -11.296875 11.484375 -11.144531 11.390625 -11.03125 C 11.304688 -10.925781 11.148438 -10.875 10.921875 -10.875 L 7.703125 -10.875 L 7.703125 -0.609375 C 7.703125 -0.367188 7.644531 -0.207031 7.53125 -0.125 C 7.425781 -0.0390625 7.28125 0 7.09375 0 L 5 0 C 4.820312 0 4.675781 -0.0390625 4.5625 -0.125 C 4.445312 -0.207031 4.390625 -0.367188 4.390625 -0.609375 L 4.390625 -10.875 L 1.15625 -10.875 C 0.914062 -10.875 0.753906 -10.925781 0.671875 -11.03125 C 0.585938 -11.144531 0.546875 -11.296875 0.546875 -11.484375 L 0.546875 -13.234375 C 0.546875 -13.421875 0.585938 -13.566406 0.671875 -13.671875 C 0.753906 -13.785156 0.914062 -13.84375 1.15625 -13.84375 Z M 10.921875 -13.84375 "/></g></g></g><g fill="#002147" fill-opacity="1"><g transform="translate(276.157663, 178.395456)"><g><path d="M 12.234375 -13.84375 C 12.429688 -13.84375 12.582031 -13.800781 12.6875 -13.71875 C 12.789062 -13.632812 12.84375 -13.472656 12.84375 -13.234375 L 12.84375 -0.609375 C 12.84375 -0.367188 12.789062 -0.207031 12.6875 -0.125 C 12.582031 -0.0390625 12.429688 0 12.234375 0 L 10.15625 0 C 9.976562 0 9.832031 -0.0390625 9.71875 -0.125 C 9.601562 -0.207031 9.546875 -0.367188 9.546875 -0.609375 L 9.546875 -5.359375 L 4.859375 -5.359375 L 4.859375 -0.609375 C 4.859375 -0.367188 4.804688 -0.207031 4.703125 -0.125 C 4.597656 -0.0390625 4.445312 0 4.25 0 L 2.171875 0 C 1.984375 0 1.832031 -0.0390625 1.71875 -0.125 C 1.613281 -0.207031 1.5625 -0.367188 1.5625 -0.609375 L 1.5625 -13.234375 C 1.5625 -13.472656 1.613281 -13.632812 1.71875 -13.71875 C 1.832031 -13.800781 1.984375 -13.84375 2.171875 -13.84375 L 4.25 -13.84375 C 4.445312 -13.84375 4.597656 -13.800781 4.703125 -13.71875 C 4.804688 -13.632812 4.859375 -13.472656 4.859375 -13.234375 L 4.859375 -8.46875 L 9.546875 -8.46875 L 9.546875 -13.234375 C 9.546875 -13.472656 9.601562 -13.632812 9.71875 -13.71875 C 9.832031 -13.800781 9.976562 -13.84375 10.15625 -13.84375 Z M 12.234375 -13.84375 "/></g></g></g><g fill="#002147" fill-opacity="1"><g transform="translate(290.566735, 178.395456)"><g><path d="M 12.421875 -4.4375 C 12.421875 -3.613281 12.242188 -2.898438 11.890625 -2.296875 C 11.546875 -1.691406 11.09375 -1.195312 10.53125 -0.8125 C 9.976562 -0.425781 9.367188 -0.144531 8.703125 0.03125 C 8.046875 0.21875 7.398438 0.3125 6.765625 0.3125 C 6.140625 0.3125 5.5 0.21875 4.84375 0.03125 C 4.195312 -0.144531 3.59375 -0.425781 3.03125 -0.8125 C 2.46875 -1.195312 2.015625 -1.691406 1.671875 -2.296875 C 1.328125 -2.898438 1.15625 -3.613281 1.15625 -4.4375 L 1.15625 -9.40625 C 1.15625 -10.226562 1.328125 -10.941406 1.671875 -11.546875 C 2.015625 -12.148438 2.46875 -12.644531 3.03125 -13.03125 C 3.59375 -13.414062 4.195312 -13.695312 4.84375 -13.875 C 5.5 -14.0625 6.140625 -14.15625 6.765625 -14.15625 C 7.398438 -14.15625 8.046875 -14.0625 8.703125 -13.875 C 9.367188 -13.695312 9.976562 -13.414062 10.53125 -13.03125 C 11.09375 -12.644531 11.546875 -12.148438 11.890625 -11.546875 C 12.242188 -10.941406 12.421875 -10.226562 12.421875 -9.40625 Z M 9.125 -9.109375 C 9.125 -9.773438 8.90625 -10.296875 8.46875 -10.671875 C 8.039062 -11.046875 7.472656 -11.234375 6.765625 -11.234375 C 6.078125 -11.234375 5.515625 -11.046875 5.078125 -10.671875 C 4.648438 -10.296875 4.4375 -9.773438 4.4375 -9.109375 L 4.4375 -4.734375 C 4.4375 -4.054688 4.648438 -3.53125 5.078125 -3.15625 C 5.515625 -2.789062 6.078125 -2.609375 6.765625 -2.609375 C 7.472656 -2.609375 8.039062 -2.789062 8.46875 -3.15625 C 8.90625 -3.53125 9.125 -4.054688 9.125 -4.734375 Z M 9.125 -9.109375 "/></g></g></g><g fill="#002147" fill-opacity="1"><g transform="translate(304.134391, 178.395456)"><g><path d="M 12.171875 -13.84375 C 12.367188 -13.84375 12.519531 -13.800781 12.625 -13.71875 C 12.726562 -13.632812 12.78125 -13.472656 12.78125 -13.234375 L 12.78125 -0.609375 C 12.78125 -0.429688 12.738281 -0.285156 12.65625 -0.171875 C 12.570312 -0.0546875 12.410156 0 12.171875 0 L 10.265625 0 C 9.992188 0 9.800781 -0.0664062 9.6875 -0.203125 C 9.582031 -0.335938 9.457031 -0.507812 9.3125 -0.71875 L 4.859375 -7.921875 L 4.859375 -0.609375 C 4.859375 -0.367188 4.804688 -0.207031 4.703125 -0.125 C 4.597656 -0.0390625 4.445312 0 4.25 0 L 2.171875 0 C 1.984375 0 1.832031 -0.0390625 1.71875 -0.125 C 1.613281 -0.207031 1.5625 -0.367188 1.5625 -0.609375 L 1.5625 -13.234375 C 1.5625 -13.421875 1.601562 -13.566406 1.6875 -13.671875 C 1.769531 -13.785156 1.929688 -13.84375 2.171875 -13.84375 L 4.140625 -13.84375 C 4.410156 -13.84375 4.597656 -13.773438 4.703125 -13.640625 C 4.816406 -13.503906 4.945312 -13.332031 5.09375 -13.125 L 9.546875 -5.9375 L 9.546875 -13.234375 C 9.546875 -13.472656 9.601562 -13.632812 9.71875 -13.71875 C 9.832031 -13.800781 9.976562 -13.84375 10.15625 -13.84375 Z M 12.171875 -13.84375 "/></g></g></g><g fill="#ff0000" fill-opacity="1"><g transform="translate(318.491889, 178.395456)"><g/></g></g></svg>